<svg xmlns="http://www.w3.org/2000/svg" xmlns:xlink="http://www.w3.org/1999/xlink" aria-hidden="true" role="img" class="iconify iconify--fluent" width="32" height="32" preserveAspectRatio="xMidYMid meet" viewBox="0 0 28 28"><g fill="none"><path d="M3.79 2.772L24.86 12.85a1.25 1.25 0 0 1 0 2.255L3.79 25.183a1.25 1.25 0 0 1-1.746-1.457l2.66-9.748l-2.66-9.75A1.25 1.25 0 0 1 3.79 2.773zm-.155 1.59l2.423 8.887H17a.75.75 0 0 1 .743.65l.007.1a.75.75 0 0 1-.648.744L17 14.75l-10.954-.001l-2.41 8.845l20.106-9.617L3.635 4.361z" fill="black"></path></g></svg>