<svg xmlns="http://www.w3.org/2000/svg" xmlns:xlink="http://www.w3.org/1999/xlink" aria-hidden="true" role="img" class="iconify iconify--fluent" width="32" height="32" preserveAspectRatio="xMidYMid meet" viewBox="0 0 16 16"><g fill="none"><path d="M5 1.5a.5.5 0 0 1 .5-.5h4a.5.5 0 0 1 0 1h-4a.5.5 0 0 1-.5-.5z" fill="black"></path><path d="M7.5 5a.5.5 0 0 0-.5.5v4a.5.5 0 0 0 1 0v-4a.5.5 0 0 0-.5-.5z" fill="black"></path><path d="M13.5 9a6 6 0 1 1-12 0a6 6 0 0 1 12 0zm-1 0a5 5 0 1 0-10 0a5 5 0 0 0 10 0z" fill="black"></path><path d="M12.453 2.642a.5.5 0 1 0-.707.707l1.403 1.403a.5.5 0 1 0 .707-.707l-1.403-1.403z" fill="black"></path></g></svg>