<svg xmlns="http://www.w3.org/2000/svg" xmlns:xlink="http://www.w3.org/1999/xlink" aria-hidden="true" role="img" class="iconify iconify--fluent" width="32" height="32" preserveAspectRatio="xMidYMid meet" viewBox="0 0 20 20"><g fill="none"><path d="M6.5 6a.5.5 0 0 0-.5.5v3a.5.5 0 0 0 .5.5h7a.5.5 0 0 0 .5-.5v-3a.5.5 0 0 0-.5-.5h-7zM7 9V7h6v2H7z" fill="black"></path><path d="M17 5.5A2.5 2.5 0 0 0 14.5 3h-9A2.5 2.5 0 0 0 3 5.5v9A2.5 2.5 0 0 0 5.5 17h9a2.5 2.5 0 0 0 2.5-2.5v-9zM5.5 4h9A1.5 1.5 0 0 1 16 5.5v9a1.5 1.5 0 0 1-1.5 1.5h-9A1.5 1.5 0 0 1 4 14.5v-9A1.5 1.5 0 0 1 5.5 4z" fill="black"></path></g></svg>